ModelForces
version=1
nRows=4
nColumns=155
inDegrees=no

This file contains the forces exerted on a model during a simulation.

A force is a generalized force, meaning that it can be either a force (N) or a torque (Nm).

Units are S.I. units (second, meters, Newtons, ...)
Angles are in degrees.

endheader
time	glut_med1_r	glut_med2_r	glut_med3_r	glut_min1_r	glut_min2_r	glut_min3_r	semimem_r	semiten_r	bifemlh_r	bifemsh_r	sar_r	add_long_r	add_brev_r	add_mag1_r	add_mag2_r	add_mag3_r	tfl_r	pect_r	grac_r	glut_max1_r	glut_max2_r	glut_max3_r	iliacus_r	psoas_r	quad_fem_r	gem_r	peri_r	rect_fem_r	vas_med_r	vas_int_r	vas_lat_r	med_gas_r	lat_gas_r	soleus_r	tib_post_r	flex_dig_r	flex_hal_r	tib_ant_r	per_brev_r	per_long_r	per_tert_r	ext_dig_r	ext_hal_r	glut_med1_l	glut_med2_l	glut_med3_l	glut_min1_l	glut_min2_l	glut_min3_l	semimem_l	semiten_l	bifemlh_l	bifemsh_l	sar_l	add_long_l	add_brev_l	add_mag1_l	add_mag2_l	add_mag3_l	tfl_l	pect_l	grac_l	glut_max1_l	glut_max2_l	glut_max3_l	iliacus_l	psoas_l	quad_fem_l	gem_l	peri_l	rect_fem_l	vas_med_l	vas_int_l	vas_lat_l	med_gas_l	lat_gas_l	soleus_l	tib_post_l	flex_dig_l	flex_hal_l	tib_ant_l	per_brev_l	per_long_l	per_tert_l	ext_dig_l	ext_hal_l	ercspn_r	ercspn_l	intobl_r	intobl_l	extobl_r	extobl_l	femur_lat_meniscii_r.femur_lat_r.force.X	femur_lat_meniscii_r.femur_lat_r.force.Y	femur_lat_meniscii_r.femur_lat_r.force.Z	femur_lat_meniscii_r.femur_lat_r.torque.X	femur_lat_meniscii_r.femur_lat_r.torque.Y	femur_lat_meniscii_r.femur_lat_r.torque.Z	femur_lat_meniscii_r.meniscus_lat_r.force.X	femur_lat_meniscii_r.meniscus_lat_r.force.Y	femur_lat_meniscii_r.meniscus_lat_r.force.Z	femur_lat_meniscii_r.meniscus_lat_r.torque.X	femur_lat_meniscii_r.meniscus_lat_r.torque.Y	femur_lat_meniscii_r.meniscus_lat_r.torque.Z	femur_med_meniscii_r.femur_med_r.force.X	femur_med_meniscii_r.femur_med_r.force.Y	femur_med_meniscii_r.femur_med_r.force.Z	femur_med_meniscii_r.femur_med_r.torque.X	femur_med_meniscii_r.femur_med_r.torque.Y	femur_med_meniscii_r.femur_med_r.torque.Z	femur_med_meniscii_r.meniscus_med_r.force.X	femur_med_meniscii_r.meniscus_med_r.force.Y	femur_med_meniscii_r.meniscus_med_r.force.Z	femur_med_meniscii_r.meniscus_med_r.torque.X	femur_med_meniscii_r.meniscus_med_r.torque.Y	femur_med_meniscii_r.meniscus_med_r.torque.Z	femur_med_tibia_r.tibia_upper_r.force.X	femur_med_tibia_r.tibia_upper_r.force.Y	femur_med_tibia_r.tibia_upper_r.force.Z	femur_med_tibia_r.tibia_upper_r.torque.X	femur_med_tibia_r.tibia_upper_r.torque.Y	femur_med_tibia_r.tibia_upper_r.torque.Z	femur_med_tibia_r.femur_med_r.force.X	femur_med_tibia_r.femur_med_r.force.Y	femur_med_tibia_r.femur_med_r.force.Z	femur_med_tibia_r.femur_med_r.torque.X	femur_med_tibia_r.femur_med_r.torque.Y	femur_med_tibia_r.femur_med_r.torque.Z	femur_lat_tibia_r.tibia_upper_r.force.X	femur_lat_tibia_r.tibia_upper_r.force.Y	femur_lat_tibia_r.tibia_upper_r.force.Z	femur_lat_tibia_r.tibia_upper_r.torque.X	femur_lat_tibia_r.tibia_upper_r.torque.Y	femur_lat_tibia_r.tibia_upper_r.torque.Z	femur_lat_tibia_r.femur_lat_r.force.X	femur_lat_tibia_r.femur_lat_r.force.Y	femur_lat_tibia_r.femur_lat_r.force.Z	femur_lat_tibia_r.femur_lat_r.torque.X	femur_lat_tibia_r.femur_lat_r.torque.Y	femur_lat_tibia_r.femur_lat_r.torque.Z	aACL_R	pACL_R	aPCL_R	pPCL_R	aMCL_R	mMCL_R	pMCL_R	aLCL_R	mLCL_R	pLCL_R	aPCL_L	pPCL_L	aMCL_L	aLCL_L
      0.16410936	     11.45154922	      8.36083264	      8.99267535	      3.86002521	      4.48630692	      4.85712875	      0.00000000	    169.27874350	    130.09729843	    286.92203643	    132.22149417	      8.32132452	      5.99097214	      3.30775594	      3.64597285	      6.14649625	      5.04209627	      3.25821626	    101.66659798	      5.39850587	      8.21253928	      6.17177282	     27.57516134	     18.56111316	      5.30814742	      3.66061102	      6.24644143	     53.52611482	     31.18560194	     33.23997048	     44.73827508	      0.00000000	      0.00000000	      0.00000000	      0.00000000	      0.00000000	      0.00000000	     34.45640093	      2.39281816	      2.87950927	     25.93880412	     41.64772514	     10.76321386	     11.45154922	      8.36083264	      8.99267535	      3.86002521	      4.48630692	      4.85712875	      0.00000000	      6.19647480	     12.23272153	     10.56520328	      2.20242308	      8.32132452	      5.99097214	      3.30775594	      3.64597285	      6.14649625	      5.43251268	      3.25821626	      2.27367513	      5.39850587	      8.21253928	      6.17177282	     27.57516134	     18.56111316	      5.30814742	      3.66061102	      6.24644143	     17.04360395	      0.00000000	      0.00000000	      0.00000000	     21.18065809	     10.00806817	     50.87261759	     51.01625602	      5.45871307	      4.88397963	     13.26090334	      7.09447476	     18.20820299	      2.86979639	      8.84780552	      2.77924644	     36.33335839	     36.33335839	     13.50204565	     13.50204565	     30.86339030	     30.86339030	     76.10509724	    148.73469850	     14.01069513	     -9.22394619	      1.81004756	     29.61172453	    -76.10509724	   -148.73469850	    -14.01069513	      4.03703937	     -2.21180021	      2.82810823	     19.51791452	     17.39099668	     10.54763667	     -3.86381802	     -0.45611576	      7.85130369	    -19.51791452	    -17.39099668	    -10.54763667	     -0.18280029	      0.21029005	      0.04209529	   -789.99121412	   -714.46627108	    222.99447494	    -16.49135579	     17.75058535	     -1.65522850	    789.99121412	    714.46627108	   -222.99447494	    103.66563824	    -14.35611707	    321.35889089	      0.00000000	      0.00000000	      0.00000000	      0.00000000	      0.00000000	      0.00000000	      0.00000000	      0.00000000	      0.00000000	      0.00000000	      0.00000000	      0.00000000	     -5.88013152	      0.00000000	    578.42447457	    378.28225061	      0.00000000	      0.00000000	      0.00000000	      0.00000000	      0.00000000	      0.00000000	      0.00000000	      0.00000000	      0.00000001	      0.00000000
      0.16436156	     11.43933475	      8.35187891	      8.98292980	      3.85606063	      4.48196854	      4.85158858	      0.00000000	    169.31139909	    130.10655593	    286.95723690	    132.20074480	      8.31231072	      5.98487616	      3.38654673	      3.64199760	      6.13929334	      5.03437565	      3.25484587	    101.64248764	      5.39270133	      8.20368925	      6.16501907	     27.55865929	     18.54229373	      5.30257691	      3.65788897	      6.24380145	     53.73474382	     31.17641633	     33.23127412	     44.72498442	      0.00000000	      0.00000000	      0.00000000	      0.00000000	      0.00000000	      0.00000000	     34.49538401	      2.39347965	      2.88984743	     25.55857197	     41.81601949	     10.80300797	     11.43933475	      8.35187891	      8.98292980	      3.85606063	      4.48196854	      4.85158858	      0.00000000	      6.18941972	     12.21910214	     10.55410306	      2.20017157	      8.31231072	      5.98487616	      3.38654673	      3.64199760	      6.13929334	      5.42807505	      3.25484587	      2.27130994	      5.39270133	      8.20368925	      6.16501907	     27.55865929	     18.54229373	      5.30257691	      3.65788897	      6.24380145	     17.02281018	      0.00000000	      0.00000000	      0.00000000	     21.17466696	     10.00435025	     50.82294609	     50.98990965	      5.45306294	      4.87885868	     13.24564314	      7.08582766	     18.19207000	      2.86689734	      8.83660578	      2.77589134	     36.29595725	     36.29595725	     13.48703095	     13.48703095	     30.84977611	     30.84977611	     76.40890748	    149.13093018	     14.05089806	     -9.25037447	      1.81568431	     29.72571128	    -76.40890748	   -149.13093018	    -14.05089806	      4.04876788	     -2.21975731	      2.84934952	     19.31653059	     17.17061678	     10.50735055	     -3.85301271	     -0.44866030	      7.76761452	    -19.31653059	    -17.17061678	    -10.50735055	     -0.17868116	      0.20337563	      0.04501405	   -793.49458894	   -714.23488938	    224.07005648	    -16.49282937	     17.83906624	     -1.64594333	    793.49458894	    714.23488938	   -224.07005648	    104.09389109	    -14.42126004	    322.76017889	      0.00000000	      0.00000000	      0.00000000	      0.00000000	      0.00000000	      0.00000000	      0.00000000	      0.00000000	      0.00000000	      0.00000000	      0.00000000	      0.00000000	     -5.90624576	      0.00000000	    581.13012311	    379.60329319	      0.00000000	      0.00000000	      0.00000000	      0.00000000	      0.00000000	      0.00000000	      0.00000000	      0.00000000	      0.00000001	      0.00000000
      0.16458509	     11.42852816	      8.34396809	      8.97431946	      3.85255774	      4.47813546	      4.84669349	      0.00000000	    169.33472601	    130.11870343	    286.99241257	    132.17993136	      8.30434689	      5.97949000	      3.44970053	      3.63848538	      6.13292938	      5.02734822	      3.25186800	    101.61867016	      5.38757299	      8.19587019	      6.15905210	     27.54408006	     18.52566724	      5.29765517	      3.65548415	      6.24143989	     53.92098431	     31.16861673	     33.22396555	     44.71376468	      0.00000000	      0.00000000	      0.00000000	      0.00000000	      0.00000000	      0.00000000	     34.52972385	      2.39380492	      2.89878406	     26.08151734	     41.96493034	     10.83824788	     11.42852816	      8.34396809	      8.97431946	      3.85255774	      4.47813546	      4.84669349	      0.00000000	      6.18318651	     12.20705300	     10.54429568	      2.19818224	      8.30434689	      5.97949000	      3.44970053	      3.63848538	      6.13292938	      5.42415410	      3.25186800	      2.26922020	      5.38757299	      8.19587019	      6.15905210	     27.54408006	     18.52566724	      5.29765517	      3.65548415	      6.24143989	     17.00443508	      0.00000000	      0.00000000	      0.00000000	     21.16929108	     10.00102627	     50.77893403	     50.96661203	      5.44803885	      4.87429698	     13.23215095	      7.07818360	     18.17779524	      2.86433609	      8.82677221	      2.77295235	     36.26291155	     36.26291155	     13.47376533	     13.47376533	     30.83774839	     30.83774839	     77.60205612	    148.09807392	     13.52713516	     -8.99728925	      1.84538533	     30.22346448	    -77.60205612	   -148.09807392	    -13.52713516	      3.99659575	     -2.24137581	      2.79975298	     19.44941359	     17.14741856	     10.46548953	     -3.83672004	     -0.45073115	      7.81954303	    -19.44941359	    -17.14741856	    -10.46548953	     -0.17911034	      0.20558933	      0.04526778	   -796.40587593	   -714.83365081	    224.22856051	    -16.48481493	     17.89298051	     -1.60709253	    796.40587593	    714.83365081	   -224.22856051	    104.15846680	    -14.47052131	    323.91349432	      0.00000000	      0.00000000	      0.00000000	      0.00000000	      0.00000000	      0.00000000	      0.00000000	      0.00000000	      0.00000000	      0.00000000	      0.00000000	      0.00000000	     -5.94240269	      0.00000000	    583.54405170	    380.83120805	      0.00000000	      0.00000000	      0.00000000	      0.00000000	      0.00000000	      0.00000000	      0.00000000	      0.00000000	      0.00000001	      0.00000000
      0.16485030	     11.41573073	      8.33461285	      8.96413707	      3.84841512	      4.47360250	      4.84090436	      0.00000000	    169.35694229	    130.13786201	    287.03999834	    132.15379866	      8.29492906	      5.97312015	      3.51737212	      3.63433189	      6.12540338	      5.01881748	      3.24834631	    101.58868503	      5.38150836	      8.18662360	      6.15199579	     27.52683966	     18.50600603	      5.29183471	      3.65264047	      6.23861188	     54.14316075	     31.15909846	     33.21501477	     44.70011510	      0.00000000	      0.00000000	      0.00000000	      0.00000000	      0.00000000	      0.00000000	     34.57007398	      2.39394347	      2.90917153	     24.19612874	     42.14117540	     10.87984261	     11.41573073	      8.33461285	      8.96413707	      3.84841512	      4.47360250	      4.84090436	      0.00000000	      6.17581531	     12.19278447	     10.53269746	      2.19582959	      8.29492906	      5.97312015	      3.51737212	      3.63433189	      6.12540338	      5.41951697	      3.24834631	      2.26674884	      5.38150836	      8.18662360	      6.15199579	     27.52683966	     18.50600603	      5.29183471	      3.65264047	      6.23861188	     16.98270089	      0.00000000	      0.00000000	      0.00000000	     21.16283323	      9.99704782	     50.72673356	     50.93903641	      5.44205803	      4.86885662	     13.21618387	      7.06913882	     18.16088883	      2.86130732	      8.81521816	      2.76950750	     36.22383093	     36.22383093	     13.45807782	     13.45807782	     30.82352540	     30.82352540	     78.64544138	    144.76531294	     12.85119940	     -8.62114368	      1.86348101	     30.68287232	    -78.64544138	   -144.76531294	    -12.85119940	      3.87671477	     -2.24814452	      2.68472450	     19.78772935	     17.17411203	     10.41854501	     -3.81686334	     -0.45852458	      7.95699313	    -19.78772935	    -17.17411203	    -10.41854501	     -0.18111354	      0.21322731	      0.04063487	   -800.52292014	   -715.09388478	    224.59583554	    -16.47285464	     17.97045380	     -1.59349651	    800.52292014	    715.09388478	   -224.59583554	    104.30118359	    -14.53977253	    325.56143379	      0.00000000	      0.00000000	      0.00000000	      0.00000000	      0.00000000	      0.00000000	      0.00000000	      0.00000000	      0.00000000	      0.00000000	      0.00000000	      0.00000000	     -5.96818697	      0.00000000	    586.40847693	    382.30269431	      0.00000000	      0.00000000	      0.00000000	      0.00000000	      0.00000000	      0.00000000	      0.00000000	      0.00000000	      0.00000001	      0.00000000
